<svg id="visual" viewBox="0 0 900 600" width="900" height="600" xmlns="http://www.w3.org/2000/svg" xmlns:xlink="http://www.w3.org/1999/xlink" version="1.1"><path d="M428 0L406.8 14.3C385.7 28.7 343.3 57.3 326.8 85.8C310.3 114.3 319.7 142.7 333.5 171.2C347.3 199.7 365.7 228.3 375.5 257C385.3 285.7 386.7 314.3 375.7 343C364.7 371.7 341.3 400.3 328.3 428.8C315.3 457.3 312.7 485.7 321.2 514.2C329.7 542.7 349.3 571.3 359.2 585.7L369 600L0 600L0 585.7C0 571.3 0 542.7 0 514.2C0 485.7 0 457.3 0 428.8C0 400.3 0 371.7 0 343C0 314.3 0 285.7 0 257C0 228.3 0 199.7 0 171.2C0 142.7 0 114.3 0 85.8C0 57.3 0 28.7 0 14.3L0 0Z" fill="#0066FF" stroke-linecap="round" stroke-linejoin="miter"></path></svg>